<?xml version="1.0" encoding="iso-8859-1"?>
<!-- Uploaded to: SVG Repo, www.svgrepo.com, Generator: SVG Repo Mixer Tools -->
<svg fill="#4b86b4" height="800px" width="800px" version="1.1" id="Layer_1" xmlns="http://www.w3.org/2000/svg" xmlns:xlink="http://www.w3.org/1999/xlink" 
	 viewBox="0 0 512 512" xml:space="preserve">
<g>
	<g>
		<g>
			<path d="M256,0C114.618,0,0,114.618,0,256s114.618,256,256,256s256-114.618,256-256S397.382,0,256,0z M277.333,468.274V362.667
				c0-11.782-9.551-21.333-21.333-21.333s-21.333,9.551-21.333,21.333v105.608C133.883,458.266,53.734,378.117,43.726,277.333
				h105.608c11.782,0,21.333-9.551,21.333-21.333s-9.551-21.333-21.333-21.333H43.726C53.734,133.883,133.883,53.734,234.667,43.726
				v105.608c0,11.782,9.551,21.333,21.333,21.333s21.333-9.551,21.333-21.333V43.726c100.784,10.008,180.933,90.157,190.941,190.941
				H362.667c-11.782,0-21.333,9.551-21.333,21.333s9.551,21.333,21.333,21.333h105.608
				C458.266,378.117,378.117,458.266,277.333,468.274z"/>
			<path d="M256,234.667c-11.776,0-21.333,9.557-21.333,21.333s9.557,21.333,21.333,21.333s21.333-9.557,21.333-21.333
				S267.776,234.667,256,234.667z"/>
		</g>
	</g>
</g>
</svg>